<svg width="81" height="81" viewBox="0 0 81 81" fill="none" xmlns="http://www.w3.org/2000/svg">
<circle opacity="0.2" cx="40.5" cy="40.6858" r="40" fill="#15C012"/>
<path fill-rule="evenodd" clip-rule="evenodd" d="M45.294 21.37C46.122 21.37 46.794 22.042 46.794 22.87C46.794 23.698 46.122 24.37 45.294 24.37H30.758C25.742 24.37 22.5 27.818 22.5 33.158V49.322C22.5 54.732 25.664 58.092 30.758 58.092H47.966C52.982 58.092 56.224 54.65 56.224 49.322V35.244C56.224 34.416 56.896 33.744 57.724 33.744C58.552 33.744 59.224 34.416 59.224 35.244V49.322C59.224 56.362 54.7 61.092 47.966 61.092H30.758C24.024 61.092 19.5 56.362 19.5 49.322V33.158C19.5 26.108 24.024 21.37 30.758 21.37H45.294ZM49.5248 35.0296C50.1808 35.5376 50.3008 36.4796 49.7928 37.1336L43.9328 44.6936C43.6888 45.0096 43.3288 45.2156 42.9328 45.2636C42.5328 45.3176 42.1368 45.2016 41.8208 44.9556L36.1848 40.5276L31.1228 47.1056C30.8268 47.4896 30.3828 47.6916 29.9328 47.6916C29.6128 47.6916 29.2908 47.5896 29.0188 47.3816C28.3628 46.8756 28.2388 45.9336 28.7448 45.2776L34.7308 37.4976C34.9748 37.1796 35.3368 36.9736 35.7328 36.9236C36.1368 36.8716 36.5328 36.9836 36.8468 37.2336L42.4868 41.6636L47.4208 35.2976C47.9288 34.6396 48.8688 34.5176 49.5248 35.0296ZM55.4348 19.6858C58.3828 19.6858 60.7788 22.0818 60.7788 25.0298C60.7788 27.9778 58.3828 30.3758 55.4348 30.3758C52.4888 30.3758 50.0908 27.9778 50.0908 25.0298C50.0908 22.0818 52.4888 19.6858 55.4348 19.6858ZM55.4348 22.6858C54.1428 22.6858 53.0908 23.7358 53.0908 25.0298C53.0908 26.3218 54.1428 27.3758 55.4348 27.3758C56.7268 27.3758 57.7788 26.3218 57.7788 25.0298C57.7788 23.7358 56.7268 22.6858 55.4348 22.6858Z" fill="#15C012"/>
</svg>
