<svg width="30" height="31" viewBox="0 0 30 31" fill="none" xmlns="http://www.w3.org/2000/svg">
<g opacity="0.7">
<path d="M21.51 0.685791C26.595 0.685791 30 4.25579 30 9.56579V21.8223C30 27.1158 26.595 30.6858 21.51 30.6858H8.505C3.42 30.6858 0 27.1158 0 21.8223V9.56579C0 4.25579 3.42 0.685791 8.505 0.685791H21.51ZM21.27 11.1858C20.76 10.6758 19.92 10.6758 19.41 11.1858L13.215 17.3808L10.59 14.7558C10.08 14.2458 9.24 14.2458 8.73 14.7558C8.22 15.2658 8.22 16.0908 8.73 16.6158L12.3 20.1708C12.555 20.4258 12.885 20.5458 13.215 20.5458C13.56 20.5458 13.89 20.4258 14.145 20.1708L21.27 13.0458C21.78 12.5358 21.78 11.7108 21.27 11.1858Z" fill="#545EE1"/>
</g>
</svg>
