<svg width="81" height="81" viewBox="0 0 81 81" fill="none" xmlns="http://www.w3.org/2000/svg">
<circle opacity="0.2" cx="40.5" cy="40.6858" r="40" fill="#8812C0"/>
<path fill-rule="evenodd" clip-rule="evenodd" d="M48.784 21.6858C55.398 21.6858 60.778 27.0658 60.778 33.6818V48.0358C60.778 54.6498 55.398 60.0318 48.784 60.0318H31.496C24.882 60.0318 19.5 54.6498 19.5 48.0358V33.6818C19.5 27.0658 24.882 21.6858 31.496 21.6858H48.784ZM48.784 24.6858H31.496C26.536 24.6858 22.5 28.7218 22.5 33.6818V48.0358C22.5 52.9958 26.536 57.0318 31.496 57.0318H48.784C53.744 57.0318 57.778 52.9958 57.778 48.0358V47.4758L51.1822 47.477C47.3882 47.477 44.3002 44.391 44.2982 40.599C44.2982 36.803 47.3862 33.715 51.1822 33.713L57.778 33.7118V33.6818C57.778 28.7218 53.744 24.6858 48.784 24.6858ZM57.778 36.7118L51.1822 36.713C49.0402 36.715 47.2982 38.457 47.2982 40.597C47.2982 42.735 49.0422 44.477 51.1822 44.477L57.778 44.4758V36.7118ZM52.0974 38.973C52.9254 38.973 53.5974 39.645 53.5974 40.473C53.5974 41.301 52.9254 41.973 52.0974 41.973H51.4734C50.6454 41.973 49.9734 41.301 49.9734 40.473C49.9734 39.645 50.6454 38.973 51.4734 38.973H52.0974ZM40.87 30.762C41.698 30.762 42.37 31.434 42.37 32.262C42.37 33.09 41.698 33.762 40.87 33.762H30.072C29.244 33.762 28.572 33.09 28.572 32.262C28.572 31.434 29.244 30.762 30.072 30.762H40.87Z" fill="#8812C0"/>
</svg>
