<svg version="1.1" xmlns="http://www.w3.org/2000/svg" xmlns:xlink="http://www.w3.org/1999/xlink" width="81" height="81" viewBox="0,0,256,256"><g fill="#ff4d19" fill-rule="none" stroke="none" stroke-width="1" stroke-linecap="butt" stroke-linejoin="miter" stroke-miterlimit="10" stroke-dasharray="" stroke-dashoffset="0" font-family="none" font-weight="none" font-size="none" text-anchor="none" style="mix-blend-mode: normal"><g transform="translate(0,-0.58722) scale(3.16049,3.16049)"><circle cx="40.5" cy="40.6858" r="40" fill-rule="nonzero" opacity="0.2"></circle><path d="M48.784,21.6858c6.614,0 11.994,5.38 11.994,11.996v14.354c0,6.614 -5.38,11.996 -11.994,11.996h-17.288c-6.614,0 -11.996,-5.382 -11.996,-11.996v-14.354c0,-6.616 5.382,-11.996 11.996,-11.996zM48.784,24.6858h-17.288c-4.96,0 -8.996,4.036 -8.996,8.996v14.354c0,4.96 4.036,8.996 8.996,8.996h17.288c4.96,0 8.994,-4.036 8.994,-8.996v-0.56l-6.5958,0.0012c-3.794,0 -6.882,-3.086 -6.884,-6.878c0,-3.796 3.088,-6.884 6.884,-6.886l6.5958,-0.0012v-0.03c0,-4.96 -4.034,-8.996 -8.994,-8.996zM57.778,36.7118l-6.5958,0.0012c-2.142,0.002 -3.884,1.744 -3.884,3.884c0,2.138 1.744,3.88 3.884,3.88l6.5958,-0.0012zM52.0974,38.973c0.828,0 1.5,0.672 1.5,1.5c0,0.828 -0.672,1.5 -1.5,1.5h-0.624c-0.828,0 -1.5,-0.672 -1.5,-1.5c0,-0.828 0.672,-1.5 1.5,-1.5zM40.87,30.762c0.828,0 1.5,0.672 1.5,1.5c0,0.828 -0.672,1.5 -1.5,1.5h-10.798c-0.828,0 -1.5,-0.672 -1.5,-1.5c0,-0.828 0.672,-1.5 1.5,-1.5z" fill-rule="evenodd"></path></g></g></svg>