<svg width="81" height="81" viewBox="0 0 81 81" fill="none" xmlns="http://www.w3.org/2000/svg">
<circle opacity="0.2" cx="40.5" cy="40.6858" r="40" fill="#0FC4A3"/>
<path fill-rule="evenodd" clip-rule="evenodd" d="M36.1099 45.3208L43.4239 57.1868C43.7439 57.7068 44.2439 57.7008 44.4459 57.6728C44.6479 57.6448 45.1339 57.5208 45.3099 56.9308L54.4559 26.0408C54.6159 25.4948 54.3219 25.1228 54.1899 24.9908C54.0619 24.8588 53.6959 24.5768 53.1659 24.7268L22.2539 33.7788C21.6679 33.9508 21.5399 34.4428 21.5119 34.6448C21.4839 34.8508 21.4759 35.3608 21.9939 35.6868L33.9959 43.1928L44.5999 32.4768C45.1819 31.8888 46.1319 31.8828 46.7219 32.4648C47.3119 33.0468 47.3159 33.9988 46.7339 34.5868L36.1099 45.3208ZM44.2899 60.6848C42.8979 60.6848 41.6219 59.9768 40.8699 58.7608L33.1159 46.1788L20.4039 38.2288C19.0339 37.3708 18.3179 35.8428 18.5399 34.2368C18.7599 32.6308 19.8619 31.3548 21.4099 30.9008L52.3219 21.8488C53.7439 21.4328 55.2679 21.8268 56.3159 22.8708C57.3639 23.9248 57.7539 25.4648 57.3299 26.8928L48.1839 57.7808C47.7259 59.3348 46.4459 60.4328 44.8439 60.6468C44.6559 60.6708 44.4739 60.6848 44.2899 60.6848Z" fill="#0FC4A3"/>
</svg>
