<svg width="26" height="25" viewBox="0 0 26 25" fill="none" xmlns="http://www.w3.org/2000/svg">
<path d="M13 0C19.8895 0 25.5 5.60781 25.5 12.5072C25.5 19.3922 19.8895 25 13 25C6.11052 25 0.5 19.3922 0.5 12.5072C0.5 5.60781 6.11052 0 13 0ZM11.5763 7.53738C11.3108 7.53738 11.0574 7.59768 10.8161 7.71828C10.5145 7.88712 10.2732 8.15244 10.1404 8.46599C10.056 8.68307 9.92326 9.3343 9.92326 9.34636C9.79054 10.0579 9.71815 11.2156 9.71815 12.494C9.71815 13.7132 9.79054 14.8215 9.89913 15.5451C9.9112 15.5572 10.0439 16.3652 10.1887 16.6425C10.4542 17.1491 10.973 17.4626 11.528 17.4626H11.5763C11.9382 17.4506 12.6984 17.137 12.6984 17.1249C13.9773 16.5943 16.499 14.9421 17.5125 13.8447L17.5849 13.7723C17.7177 13.6397 17.8866 13.4346 17.9228 13.3864C18.1158 13.1331 18.2124 12.8196 18.2124 12.5072C18.2124 12.1563 18.1038 11.8307 17.8986 11.5654C17.8504 11.5171 17.6694 11.3121 17.5005 11.1433C16.5111 10.082 13.9291 8.34539 12.5777 7.81476C12.3726 7.73155 11.8538 7.54945 11.5763 7.53738Z" fill="#0F1457"/>
</svg>
